<svg xmlns="http://www.w3.org/2000/svg" viewBox="0 0 512 512" width="100%" height="100%">
  <defs>
    <linearGradient id="layer1" x1="0%" y1="0%" x2="100%" y2="0%">
      <stop offset="0%" stop-color="#F59E0B"/>
      <stop offset="100%" stop-color="#EF4444"/>
    </linearGradient>
    <linearGradient id="layer2" x1="0%" y1="0%" x2="100%" y2="0%">
      <stop offset="0%" stop-color="#10B981"/>
      <stop offset="100%" stop-color="#3B82F6"/>
    </linearGradient>
    <linearGradient id="layer3" x1="0%" y1="0%" x2="100%" y2="0%">
      <stop offset="0%" stop-color="#8B5CF6"/>
      <stop offset="100%" stop-color="#EC4899"/>
    </linearGradient>
  </defs>
  <rect width="512" height="512" rx="100" fill="#1C1917" />
  
  <!-- Isometric layers -->
  <g transform="translate(0, -50)">
    <path d="M 100 320 L 256 240 L 412 320 L 256 400 Z" fill="url(#layer3)" opacity="0.9"/>
    <path d="M 100 320 L 256 400 L 256 420 L 100 340 Z" fill="#BE185D" />
    <path d="M 412 320 L 256 400 L 256 420 L 412 340 Z" fill="#701A75" />
  </g>
  <g transform="translate(0, 10)">
    <path d="M 100 260 L 256 180 L 412 260 L 256 340 Z" fill="url(#layer2)" opacity="0.9"/>
    <path d="M 100 260 L 256 340 L 256 360 L 100 280 Z" fill="#047857" />
    <path d="M 412 260 L 256 340 L 256 360 L 412 280 Z" fill="#1D4ED8" />
  </g>
  <g transform="translate(0, 70)">
    <path d="M 100 200 L 256 120 L 412 200 L 256 280 Z" fill="url(#layer1)" opacity="0.9"/>
    <path d="M 100 200 L 256 280 L 256 300 L 100 220 Z" fill="#B45309" />
    <path d="M 412 200 L 256 280 L 256 300 L 412 220 Z" fill="#B91C1C" />
  </g>
  
  <path d="M 256 120 L 256 430" fill="none" stroke="#FFFFFF" stroke-width="4" stroke-dasharray="8 8" opacity="0.4"/>
</svg>
